<svg xmlns="http://www.w3.org/2000/svg" xml:space="preserve" style="fill-rule:evenodd;clip-rule:evenodd;stroke-linejoin:round;stroke-miterlimit:2" viewBox="0 0 31 31"><path d="M23.33 1.9c.025.007.035.042.06.049.368.106 2.705.082 4.476 2.796.647.991.797 2.102.824 2.295.016.121.033.113.068.231.014 1.259.012 16.09 0 16.179-.005.033-.04.02-.104.407-.456 2.726-2.703 4.648-5.265 4.898-.076.007-.154.002-.229.018-.025.006-.035.043-.06.046-.019.002-14.327.003-15.488 0-.025-.004-.035-.041-.06-.045-.113-.021-.229-.018-.343-.029-.803-.075-1.938-.431-2.859-1.12-2.436-1.823-2.401-4.477-2.409-4.52-.004-.024-.04-.035-.045-.059V7.616c.003-.025.041-.035.046-.06.019-.094.014-.191.023-.286A5.95 5.95 0 0 1 3.58 3.758c1.694-1.744 3.511-1.755 3.683-1.807.025-.008.034-.047.06-.051a31 31 0 0 1 .691-.006c1.225-.003 11.721-.027 15.315.006Z" style="fill:#00e2e2;fill-opacity:1"/><path d="M11.521 10.553c.019.03.07.027.089.057.109.172.485 2.479 3.311 2.902 1.623.243 4.023-.918 4.264-3.536.019-.209-.042-.301.173-.301a535 535 0 0 1 3.341-.001c.264.036-.056 1.578-.111 1.8-.555 2.226-1.891 3.423-2.356 3.861-1.208.871-1.557 1.346-4.155 1.812-2.685.178-4.33-.926-4.444-.991-.057-.032-.034-.063-.102-.075-.015-.003-.006.043-.021.041-.011-.189-.042-4.734.012-5.57Z" style="fill:#dffefe"/><path d="M11.521 10.553c-.054.836-.023 5.381-.012 5.57-.051.209.051 4.824-.054 4.885-.01.006-3.514.067-3.556-.034-.028-.067-.006-8.535-.013-11.112-.001-.252.154-.188 1.166-.188 2.379-.001 2.413-.013 2.44.063.011.03.006.028.03.816Z" style="fill:#fefefe"/><path d="m20.231 15.337.029.058c.356.331 2.53 2.35 2.54 5.52 0 .128-.078.108-2.58.108-.789 0-1.011.038-1.024-.109-.075-.834-.193-1.624-1.136-2.617-.118-.125-.725-.763-1.872-1.057-.077-.02-.054-.045-.113-.093 2.598-.466 2.947-.941 4.155-1.812Z" style="fill:#defbfb"/></svg>