<svg xmlns="http://www.w3.org/2000/svg" xml:space="preserve" style="fill-rule:evenodd;clip-rule:evenodd;stroke-linejoin:round;stroke-miterlimit:2" viewBox="0 0 512 512"><path d="M313.047 90.364c-.513 3.65-.483 3.565-1.083 7.208-6.33 38.428 15.109 72.568 39.786 87.543 42.262 25.645 76.79 6.975 81.953 6.783l.981-.013c-1.644 1.168-2.634.496-2.624 2.541.082 16.806-.235 16.776-.02 210.074.006 5.307-3.208 17.288-7.124 25.157l-1.269 1.905-1.097 1.966c-.345.672-2.995 5.837-4.881 8.081-.978 3.041-.962 2.965-.97 3.055-.109.138-.042.143-1.094 1.903-1.595.315-1.644.454-1.927 2.103-.277.288-.011.477-3.001 3.996-2.15.291-1.594 1.026-1.785 1.222l-.998 1.002c-.131.131-.909-.449-1.205 1.781-3.045.347-4.579 3.371-6.999 5.073-.384.27-.765.04-1.031 1.949-2.157.329-1.715.977-1.943 1.175-6.287 4.939-6.507 4.424-7.045 4.847-2.735.146-2.534.671-5.053 2.006-.697.377-.732.282-8.991 4.145-.295.138-.756-.175-.974.067-.228.254.22.77-.008 1.023l-1.063.709c-1.834-.802-1.818-.932-1.977-.864-1.941.826-1.947.557-3.994 1.083-.424.109-.648.651-1.072.76-5.129.388-10.138 1.845-10.998 2.095l-3.028 1.101c-39.404.276-207.936.069-226.017.046-1.314-.244-2.695.176-4.009-.068l-3.014-1.16c-.411-.072-.623-.634-1.034-.706-1.313-.229-2.665-.082-3.995-.172-1.416-.095-1.389-.841-3.011-.982-7.412-.641-11.481-4.833-15.832-3.497-3.983-2.219-3.971-2.173-4.3-2.39-.003-.006.213-1.273-1.046-1.934l-2.049-.017c-2.737-1.102-11.002-7.366-11.92-8.061-2.178-3.406-2.373-3.168-5.243-5.927-1.227-1.18-1.291-1.025-2.911-1.228-.961-1.236-3.49-3.763-3.806-4.078-.274-1.613-.307-1.764-1.925-2.106-.292-.49-2.231-3.749-4.199-5.766-.168-3.529-2.226-4.498-3.934-8.173-.8-1.108-1.664-2.855-1.791-3.113-.3-1.154-.328-1.095-1.034-1.987l-1.26-2.899-1.116-1.967c-.232-.399.026-.45-2.358-5.261.336-1.471.063-1.371-.568-2.843-.386-.991-1.129-2.902-2.764-13.007.756-2.071.688-2.095-.253-4.042l.001-227.007c.138-.433.759-.594.897-1.027.299-.941.105-1.859.072-2.017-.134-.633-.566-.32-.709-.994 1.45-5.117.734-10.253 3.698-16.099.654-1.415.918-1.312.621-2.776l.389-.219.966-2.05 1.067-1.961 1.239-2.911 1.035-1.991c.754-1.554.78-1.525.634-3.237l.995-.989c1.872-1.838 7.962-10.328 8.311-12.875 4.853-4.908 5.678-6.288 6.055-6.919 4.929-.581 4.247-1.921 7.733-5.4 1.538-1.535 1.491-1.496 3.252-2.691 1.948-1.744 2.139-1.412 3.84-3.304 1.261-.655 1.33-.487 2.219-1.648 6.434-3.785 6.476-3.51 13.147-6.683 5.331-2.536 5.428-2.078 5.86-2.34.377.083.553.609.93.692 1.331.294 1.229-.087 3.017-.941 1.057-.505.943-.521 1.978-1.093 2.964-1.254 3.084-.52 6.069-1.673 2.435 1.099 2.413 1.428 5.032.681.44-.125.586-.786 1.025-.911 25.245.076 187.883.038 187.976.011a5 5 0 0 0 2.573-1.766Z" style="fill:#01e3e2;fill-opacity:1"/><path d="m394.494 23.113 8.007-.002c1.424.733 1.862 2.222 6.928.566l1.015.223c1.979.415 1.772 1.366 5.174 1.131l.828-.147c.942.983.779 1.307 2.128 1.326 2.122.03 1.895.923 3.995.997 1.676.059 1.418.89 3.03.965 1.988.093 1.849.951 3.83.501l.213.413c1.664.816 1.445 1.058 3.087 1.922 8.044 4.235 8.216 3.891 8.852 4.359 2.854.96 2.541 1.368 5.04 2.939 2.279.851 2.202.926 3.048.995l.146.783c1.66 1.757 1.536 2.022 3.856 2.212l.152.784 2.865 1.223 1.05 1.956.983 1.006 1.008.979 1.048.974.987 1.04c.399.439-.405.561.001 1.009.389.429.555-.385.945.035.224.241-.222.75.006.987.223.233.74-.202.967.027.229.23-.203.745.027.974.231.23.746-.205.977.025.415.433-.387.572.02.996.402.419.565-.401.967.033l.977 2.026c2.264 1.817 1.537 2.522 4.05 3.96.452 3.997 2.315 3.721 2.941 4.094l.223.879c.446.983-.279 1.008.131 1.912.209.46.513-.324.782.101l.698 2.193c.238.481 1.738 3.513 2.969 6.015 1.119 2.09 2.03 4.524 2.181 4.928.99 2.644 1.053 2.503 2.244 4.972l.77 2.011c-1.026 3.078-.003 3.016 1.299 5.95-.018 2.196-.069 2.193.936 4.102l.105 2.903c-.433 4.634.653 4.415.901 5.103l.001 12.016c-1.3 2.346-1.359 2.42-.569 4.923-.189 2.894-.344 2.777-1.193 7.015-1.769 1.755-3.228 7.862-2.811 9.975l-.381.225c-3.026 5.849-2.562 5.995-5.489 11.822-2.389 4.133-2.363 4.063-4.845 8.092-1.17 1.9-.769 1.964-.879 2.109-.172.226-.717-.154-.848.099-.293.565.104 1.335-.189 1.9-.4.411-1.915 2.376-2.054 2.91-.208.147-1.497-.892-1.945 2.094-.775.779-.618.811-1.403 1.611a1.8 1.8 0 0 1-.58.394c-.684.287-.402.492-.861 1.052l-1.139-.04c-.009.021-1.051-.105-1.004 3.006-4.269-.102-6.41 4.604-8.912 6.169-.352.345-.866-.088-1.21 1.75-1.607.969-1.612.815-2.912 2.065-3.061.226-2.865 1.114-2.956 1.16-2.752 1.162-2.617 1.194-5.184 2.701-5.512 2.825-5.339 3.11-5.817 3.355-5.163.192-39.692 18.862-81.953-6.783-24.677-14.974-46.116-49.114-39.786-87.543.6-3.643.57-3.558 1.083-7.208l-.135-.791c1.896-1.967 2.894-7.353 3.592-9.072 1.151-3.241 2.762-6.437 3.036-6.981 1.068-2.019 4.608-7.028 4.618-10.204l.189-.91 1.85-1.16c.201-.241.797.153 1.099-1.911 1.178-1.456.825-1.592 2-3 .518-.252 1.193.009 1.711-.242.202-.098.021-.2.286-2.792.62-.256 1.391.274 2.011.018.16-.066-.004-.189 1.314-1.717.074-.085.648-.751.936-1.053 1.403-1.471 1.519-1.248 1.633-1.375.204-.228-.118-.687.086-.915.901-.849 1.2-.189 2.012-1.006.228-.229-.218-.747.016-.969.243-.23.854.303 1.003.003.298-.596-.304-1.403-.006-2l2.9-1.172 1.022-.967c1.691-.756 1.691-.691 2.983-2.046l1.116-1.796c3.863-.031 4.703-1.713 7.104-2.94 4.325-3.014 4.802-2.121 8.998-5.244 1.658-.626 1.633-.552 3.173-1.425 2.519.573 2.406-.139 5.775-1.561.078-.033.054.1 1.058.074 1.618-.042 1.4-.51 2.947-1.073 1.676-.057 1.582-.215 3.074-1.031l.93-.081c3.757.293 3.542-.612 4.106-.907l1.898-.098c.482.064 4.619.618 6.074.067.443-.168.593-.806 1.036-.974l-5.894 37.809c-4.745 2.58-5.283 1.139-10.002 3.771-4.439 2.476-6.03 2.188-7.053 2.89-.422.268-.464-.026-.865.228-.091.058 0 0-1.037.869-1.508 1.536-1.386 1.541-2.928 3.054-1.353 1.327-1.631.783-3.069 1.937-.987.989-1.824 1.831-1.982 1.991l-.99.991-.853 1.055c-.213.658-.621 1.916-5.142 6.948l-.986.994c-2.217 2.765-3.423 7.124-3.606 7.786-.406 2.692.086 2.78-1.169 5.181.242 4.57-1.387 4.386-.981 8.883.086.948.489 5.412-.016 11.895 1.227 2.289.458 2.443.968 4.985.182.909.904.671 1.019 4.977.016.175.323-.01.92 1.991 1.726 2.395 1.031 2.685 2.797 5.087.216.882.956 1.782 1.067 1.918 1.196 1.399.809 1.574 1.995 2.99.99.994 1.841 1.819 2.002 1.975 1.02.992.955.928 2.02 1.976l1 .994 1.001 1 .996 1.01.99 1.005c2.476 2.499 3.007 1.914 5.008 4.868l1.035.909c2.854-.156 7.476 3.648 10.68 4.612l.219.41c.352.056.417-.325 2.785.598 3.12.705 2.967.997 6.066 1.258 7.525.011 7.423.009 15.02-.006.721.049 3.997.274 8.849-1.791 1.327-.948 1.376-.711 2.988-1.051.965-.662.888-.633 1.99-.979 2.721-1.884 2.974-1.255 5.087-2.769l.858-.222c.735-.683 1.108-1.538 1.173-1.688.093-.213 2.219-1.556 2.832-2.175l.977-1.018c1.074-1.093 1.006-1.022 2.12-1.951.879-.182 1.797-.883 1.935-.989 1.149-1.879 1.366-1.619 3.02-2.987l.992-.989c3.217-3.365 6.252-9.958 6.81-10.99-.428-4.113 2.807-9.794 2.942-9.981-.138-3.153-.521-3.205 1-5.962-.051-.784.074-.774.008-9.818-1.285-2.33-1.225-2.336-1-5.056.033-.4-.651-.271-1.006-4.921-.274-.512-1.363-1.165-2.942-8.956-1.548-1.929-1.163-2.116-2.823-4.021l-.93-1.075c-.263-.434.04-.47-.209-.882-.056-.092 0 0-.862-1.032a274 274 0 0 0-2.007-1.968c-.161-.159-1.005-.995-2.012-1.985-2.567-2.509-2.523-2.467-4.982-5.012-.771-.798-.727-.769-1.065-1.869-2.933.358-3.879-2.539-4.002-2.915-3.42.341-4.337-1.508-6.828-2.249-7.698-2.288-7.737-1.936-11.027-3.72-.678.017-9.437.595-17.865-.07l-.932.058 5.894-37.809Z" style="fill:#fc721a;fill-opacity:1"/><path d="M182.679 217.486c6.117 9.924 3.14 11.573 11.75 22.073 33.756 41.168 94.404 17.244 98.61-29.126.356-3.928-.549-5.502 3.459-5.555 3.856-.051 46.103-.608 48.202.26 3.622 1.498-1.85 45.794-26.633 71.966-.736.777-1.837 1.94-9.468 9.447-20.159 14.092-22.278 19.409-61.09 26.397-8.477.21-32.102 2.251-60.815-12.819-.193-.101-.064-.211-2.227-1.565-1.433-.897-1.844-.117-2.145-.137-.024-74.717-.041-74.713.358-80.942Z" style="fill:#defefe"/><path d="M182.679 217.486c-.398 6.229-.382 6.225-.358 80.942.012 2.322.08 68.502-.019 69.027-.373 1.981-1.381 1.331-43.802 1.408-.672.001-7.915.014-8.312-1.241-.232-.732-.028-130.287-.111-157.125-.002-.648-.99-5.565 2.437-5.652 20.612-.525 44.122-.088 47.958-.017 2.52.047 1.821 5.15 2.207 12.657Z" style="fill:#fefefe"/><path d="m389.545 74.69 3.917-.557c1.027-.176 7.018-1.205 13.012.493 3.359 1.123 10.062 2.362 15.269 7.573 2.987 2.989 6.475 3.779 11.831 16.274 1.819 2.695.726 3.031 1.791 6.048.238 7.002.24 6.921-.084 13.929-1.123 3.208-2.715 12.423-11.939 20.872-4.61 4.223-5.166 3.279-5.555 3.64-.608.564-3.036 2.817-9.263 4.648-1.644.176-1.39.686-2.966 1.219-.524.177-12.932-.311-14.056-.355-1.994-.717-1.943-.754-4.109-.608-5.825-3.87-7.873-3.652-10.001-5.202-.782-.569-5.126-3.734-8.968-8.104-.318-.362.274-.539-.156-.866-.504-.384-.56.321-1.021-.03-.282-2.485-.958-2.14-1.901-4.082-.206-.293.119-.346-2.053-3.986-1.184-2.928-1.763-7.571-2.582-10.118l-.02-7.967c.444-1.787 1.593-16.133 15.794-27.026 1.871-1.435 7.175-3.471 9.071-4.814 2.136-.258 2.036-.273 3.988-.978Z" style="fill:#024e84;fill-opacity:1"/><path d="m308.598 286.551.497 1.051c2.615 2.615 35.027 29.436 36.611 78.896.014.421.158 2.327-2.174 2.375-3.987.082-48.39.991-49.849-.547-.153-.162-.381-35.586-33.355-50.467-6.349-2.865-6.77-1.589-12.821-4.911 38.812-6.988 40.931-12.305 61.09-26.397Z" style="fill:#defbfb"/><path d="m384.372 75.187 1.186.481c-1.897 1.343-7.2 3.379-9.071 4.814-14.202 10.893-15.351 25.239-15.794 27.026-.395-1.581-.223-1.541-.59-3.061-.39-5.286 6.329-15.578 6.553-15.786 3.932-3.649 5.504-7.482 8.031-8.754 9.123-4.59 9.049-4.66 9.685-4.72" style="fill:#a3b8ca;fill-opacity:.25"/><path d="m435.282 118.45.937 2.99c-.852 2.063-1.274 1.784-1.808 4.024-.489 2.052-1.097 1.775-1.306 3.839-.027.264-.695.979-.767 1.055-3.441 3.679-2.378 4.418-5.975 8.01-3.887 3.883-3.833 3.871-8.775 6.308-4.781 2.358-4.647 2.587-7.01 3.144l-2.054-.211c6.227-1.831 8.655-4.084 9.263-4.648.39-.361.945.582 5.555-3.64 9.224-8.449 10.816-17.664 11.939-20.872Z" style="fill:#8198ae;fill-opacity:.36"/><path d="M409.468 73.801c2.025.185 1.809.856 3.836 1.098.002 0 2.726 1.934 4.33 2.388.425.12 4.024 3.434 6.013 3.959.707.186 1.14 2.075 6.079 7.036 2.595 2.607 3.966 7.109 4.057 8.094l-.207 2.097c-5.356-12.495-8.845-13.286-11.831-16.274-5.208-5.211-11.91-6.449-15.269-7.573 1.541-.297 1.49-.214 2.994-.824Z" style="fill:#889db0;fill-opacity:.32"/><path d="m348.63 95.547.287 3.07c.242 4.57-1.387 4.386-.981 8.883.086.948.489 5.412-.016 11.895l-.615 2.146c-1.77-13.087-1.929-13.192 1.324-25.994Z" style="fill:#f6c6b2;fill-opacity:.09"/><path d="m366.615 133.431.633.231c.46.351.517-.354 1.021.03.43.328-.162.505.156.866 3.842 4.37 8.186 7.535 8.968 8.104 2.128 1.55 4.177 1.333 10.001 5.202-3.716.202-3.326-1.279-6.994-2.169-3.312-.804-2.378-2.538-5.001-3.012-3.42-.619-8.245-8.385-8.784-9.252" style="fill:#8298ad;fill-opacity:.32"/><path d="M95.603 475.302c4.351-1.336 8.42 2.855 15.832 3.497 1.622.14 1.596.886 3.011.982 1.33.09 2.682-.057 3.995.172.411.072.623.634 1.034.706-.325-.04-1.961-.24-4.085.284-6.755.21-16.955-4.578-19.786-5.639Z" style="fill:#a8f0f1;fill-opacity:.16"/><path d="M390.539 72.787c7.581-2.839 18.349.79 18.929 1.014-1.504.61-1.453.528-2.994.824-5.994-1.698-11.985-.669-13.012-.493-2.745-1.3-2.694-1.228-2.923-1.346Z" style="fill:#b6c3d2;fill-opacity:.12"/><path d="M436.231 101.537c1.414 3.796 1.522 15.877-.012 19.903l-.937-2.99c.324-7.008.321-6.927.084-13.929.328-1.531.252-1.497.865-2.984" style="fill:#acbdcf;fill-opacity:.18"/><path d="m408.525 147.61 2.054.211c-.551.233-5.47 2.315-7.106 2.344-12.697.223-12.883-.57-13.907-.995l1.937-.697c1.124.044 13.533.532 14.056.355 1.577-.532 1.323-1.043 2.966-1.219Z" style="fill:#b9c4d1;fill-opacity:.23"/><path d="M389.532 60.864c.941-.401.602-1.132 2.977-1.269.479-.028 3.499-.202 5.99-.199 8.34.01 8.165.892 9.912 1.437l-1.014.102c-.678.017-9.437.595-17.865-.07Z" style="fill:#f7cdb9;fill-opacity:.08"/><path d="m407.397 60.935 1.014-.102c6.349-.156 10.381 2.224 16.84 6.07-3.42.341-4.337-1.508-6.828-2.249-7.698-2.288-7.737-1.936-11.027-3.72Z" style="fill:#f8bfa3;fill-opacity:.18"/><path d="M388.6 60.922c-4.745 2.58-5.283 1.139-10.002 3.771-4.439 2.476-6.03 2.188-7.053 2.89l.179-.706c1.139-.868 9.112-6.942 16.876-5.955" style="fill:#e3ac8e;fill-opacity:.22"/><path d="M360.103 104.447c.367 1.52.195 1.48.59 3.061l.02 7.967-.933 2.985c-2.641-6.908-.109-12.979.323-14.014Z" style="fill:#cad5dd;fill-opacity:.04"/><path d="M429.642 29.087c1.2.257 10.101 2.163 14.032 6.196l-2.094.084c-.636-.468-.808-.123-8.852-4.359-1.642-.865-1.423-1.106-3.087-1.922Z" style="fill:#e4b399;fill-opacity:.23"/><path d="M481.93 139.649c.218 5.189-1.825 4.66-2.818 9.776-.396 2.038-2.109 3.978-2.368 4.271l-.304-2.225c2.927-5.827 2.463-5.973 5.489-11.822Z" style="fill:#e4b399;fill-opacity:.21"/><path d="M364.423 30.122c-4.196 3.123-4.673 2.23-8.998 5.244l-2.14-.258c5.404-4.594 8.09-4.795 11.138-4.986" style="fill:#edbca6;fill-opacity:.19"/><path d="m476.441 151.471.304 2.225c-.275.324-2.024 4.172-3.363 5.735-1.834 2.14-1.644 2.237-3.701 4.241.293-.565-.104-1.335.189-1.9.131-.253.675.128.848-.099.111-.146-.291-.21.879-2.109 2.482-4.029 2.456-3.959 4.845-8.092Z" style="fill:#e2b196;fill-opacity:.26"/><path d="m77.312 109.28 2.069.06c-1.761 1.194-1.715 1.156-3.252 2.691-3.486 3.479-2.803 4.819-7.733 5.4 6.3-7.49 7.276-6.88 8.916-8.151" style="fill:#9ee6e6;fill-opacity:.25"/><path d="M390.49 161.96c7.525.011 7.423.009 15.02-.006-2.176 2.191-13.027 1.9-15.02.006" style="fill:#f5b38b;fill-opacity:.05"/><path d="M68.134 455.745c1.62.203 1.684.048 2.911 1.228 2.87 2.759 3.065 2.522 5.243 5.927-.745-.1-3.183-.428-7.52-5.632-.085-.101-.047-.113-.634-1.524Z" style="fill:#aff0f1;fill-opacity:.18"/><path d="m384.618 471.72 2.091.202c-6.032 4.053-11.032 4.865-12.064 5.033.228-.254-.22-.77.008-1.023.218-.242.679.071.974-.067 8.259-3.863 8.295-3.768 8.991-4.145" style="fill:#92d6d6;fill-opacity:.24"/><path d="M447.483 94.506c1.349 4.966 1.639 4.847 2.163 9.974l-.553 2.115c-1.285-2.33-1.225-2.336-1-5.056.033-.4-.651-.271-1.006-4.921z" style="fill:#e6b391;fill-opacity:.21"/><path d="M460.694 174.697c-.199.201-.067.238-2.393 2.607-3.581 3.649-5.525 3.466-6.637 4.397l.118-.836c2.502-1.565 4.643-6.27 8.912-6.169Z" style="fill:#e0b099;fill-opacity:.24"/><path d="m316.047 78.346.458 2.156c-.699 1.719-1.696 7.104-3.592 9.072.1-.655 1.153-7.568 1.369-8.164.426-1.174 1.602-2.833 1.766-3.064Z" style="fill:#ddab8d;fill-opacity:.21"/><path d="M406.69 456.671c-.808 1.078-.755.984-.808 1.078-2.34 4.175-3.422 3-7.222 5.944.266-1.909.647-1.679 1.031-1.949 2.42-1.702 3.954-4.726 6.999-5.073" style="fill:#a2e2e1;fill-opacity:.18"/><path d="m366.539 478.644 1.887.67c-4.374 1.49-4.27 1.743-8.82 1.611-2.105-.419-3.742-.225-4.065-.186.86-.25 5.869-1.707 10.998-2.095" style="fill:#98e0e0;fill-opacity:.25"/><path d="M62.34 124.35c-.349 2.547-6.439 11.036-8.311 12.875.281-1.572.773-1.356 1.071-2.931.178-.939 1.054-1.835 1.182-1.967 3.521-3.601 2.411-4.414 6.058-7.977" style="fill:#84d8d8;fill-opacity:.35"/><path d="M478.954 73.288c.577.842 2.212 3.227 3.919 12.138-1.191-2.469-1.254-2.328-2.244-4.972-.151-.404-1.062-2.837-2.181-4.928z" style="fill:#dcab90;fill-opacity:.27"/><path d="m448.085 122.375.411 2.125c-1.065 6.343-2.275 6.424-3.353 7.857-.428-4.113 2.807-9.794 2.942-9.981Z" style="fill:#e6b191;fill-opacity:.16"/><path d="M360.713 115.475c.818 2.547 1.398 7.19 2.582 10.118l-.332 2.756c-.547-2.355-.104-2.526-1.359-3.903-1.371-1.504-1.774-5.488-1.824-5.986z" style="fill:#7b8ea4;fill-opacity:.35"/><path d="M449.646 104.48c1.1 7.055.942 7.019-.029 14.038l-.531-2.105c-.051-.784.074-.774.008-9.818z" style="fill:#d79977;fill-opacity:.33"/><path d="m422.552 433.527.407 2.201c-.681 1.495-.404 1.672-1.222 1.958-2.208.772-.316 2.454-4.05 5.987l-.015-2.065c1.886-2.244 4.536-7.409 4.881-8.081Z" style="fill:#96e2e2;fill-opacity:.23"/><path d="m319.259 71.307.282 2.214c-.274.544-1.885 3.74-3.036 6.981l-.458-2.156c.822-3.902.576-4.063 3.212-7.039" style="fill:#eaba9d;fill-opacity:.21"/><path d="M416.447 24.885c1.062.208 9.743 1.904 12.982 3.789-1.981.45-1.842-.408-3.83-.501-1.612-.075-1.354-.906-3.03-.965-2.099-.073-1.873-.967-3.995-.997-1.349-.019-1.187-.343-2.128-1.326Z" style="fill:#c8997d;fill-opacity:.37"/><path d="M324.159 63.317c-.01 3.175-3.55 8.185-4.618 10.204l-.282-2.214c1.214-1.402.521-2.148 4.9-7.99" style="fill:#dca586;fill-opacity:.35"/><path d="M347.921 119.395c1.227 2.289.458 2.443.968 4.985.182.909.904.671 1.019 4.977-1.778-3.745-1.585-3.756-2.602-7.816z" style="fill:#deaa90;fill-opacity:.2"/><path d="M475.713 67.301c.366.403 2.324 2.563 3.24 5.987l-.506 2.238a3432 3432 0 0 0-2.969-6.015z" style="fill:#edbca4;fill-opacity:.2"/><path d="M54.27 435.623c1.708 3.675 3.766 4.644 3.934 8.173-.374-.371-2.458-1.361-4.11-6.081z" style="fill:#97e2e4;fill-opacity:.26"/><path d="m337.31 47.312-.036.948c-.204.228.118.687-.086.915-.114.127-.23-.096-1.633 1.375-.288.302-.862.968-.936 1.053-1.318 1.528-1.154 1.651-1.314 1.717-.62.256-1.391-.274-2.011-.018 2.255-2.304 1.715-2.702 4.287-4.668.327-.25.385-.03.741-.331.085-.072 0 0 .987-.989Z" style="fill:#d9b197;fill-opacity:.2"/><path d="M433.782 96.376c.958 1.031.701 1.163 1.659 2.154.536.555.764 2.76.79 3.007-.613 1.487-.537 1.452-.865 2.984-1.065-3.017.027-3.353-1.791-6.048z" style="fill:#8da2b7;fill-opacity:.31"/><path d="M370.74 155.081c2.854-.156 7.476 3.648 10.68 4.612-3.605.675-9.758-4.09-10.68-4.612" style="fill:#ce9877;fill-opacity:.35"/><path d="M444.144 87.662c1.757 3.425 1.873 3.271 3.339 6.844l-.396 2.112c-.274-.512-1.363-1.165-2.942-8.956Z" style="fill:#d39e7e;fill-opacity:.25"/><path d="m449.086 116.413.531 2.105c-.337 3.092-.245 3.037-1.12 5.981l-.411-2.125c-.138-3.153-.521-3.205 1-5.962Z" style="fill:#e4b090;fill-opacity:.21"/><path d="M485.123 129.448c-.158.814-1.515 7.793-2.811 9.975-.417-2.113 1.042-8.22 2.811-9.975" style="fill:#c69b7e;fill-opacity:.38"/><path d="M359.821 77.708c-.213.658-.621 1.916-5.142 6.948l.063-1.997c.148-.245 1.672-2.762 2.002-2.966.267-.165.734.201.939-.036.223-.257-.173-.714-.025-1.02.343-.71.894-.946.997-.99.611-.262.587.31 1.165.062Z" style="fill:#d5a68a;fill-opacity:.24"/><path d="m439.521 188.542 2.159.191c-.461.406-2.28 2.007-6.994 3.151l-.981.013c.478-.245.305-.53 5.817-3.355Z" style="fill:#d9a88e;fill-opacity:.25"/><path d="M430.266 70.79c.894.782 1.183.131 2.024.937.229.219-.189.728.037.95.23.226.74-.195.965.035.227.232-.21.747.022.974.236.231.762-.22.992.018.232.241-.243.765-.008 1.003.233.236.764-.243.995-.005.235.242-.245.764-.016 1.012.217.236.741-.215.963.016.231.24-.218.759.012 1l-.952-.03c-2.567-2.509-2.523-2.467-4.982-5.012l-.053-.897Z" style="fill:#cba28c;fill-opacity:.2"/><path d="M369.642 68.68c-1.508 1.536-1.386 1.541-2.928 3.054-1.353 1.327-1.631.783-3.069 1.937 1.029-2.199.692-2.446 1.946-3.061.304-.149.758.243 1.016.022.236-.202-.188-.727.046-.932.255-.223.752.217 1.015.003.435-.353-.439-.618.065-.88.904-.469 1.009.323 1.909-.143" style="fill:#d1a58c;fill-opacity:.22"/><path d="M115.389 480.941c2.124-.523 3.76-.323 4.085-.284l3.014 1.16c1.314.244 2.695-.176 4.009.068-4.951.11-6.94 1.155-11.108-.945Z" style="fill:#7bacab;fill-opacity:.19"/><path d="m353.285 35.108 2.14.258c-2.401 1.228-3.24 2.909-7.104 2.94 3-2.674 4.507-3.076 4.964-3.198" style="fill:#e1ac8b;fill-opacity:.29"/><path d="m376.382 26.081.993.056c-1.546.563-1.329 1.03-2.947 1.073-1.003.026-.98-.107-1.058-.074-3.369 1.422-3.256 2.134-5.775 1.561 4.415-1.332 4.125-2.163 8.786-2.616Z" style="fill:#c99a7b;fill-opacity:.39"/><path d="M373.582 477.664c-.379.21-1.682.932-5.156 1.65l-1.887-.67c.424-.109.648-.651 1.072-.76 2.047-.526 2.053-.257 3.994-1.083.159-.068.143.063 1.977.864Z" style="fill:#98dede;fill-opacity:.23"/><path d="m434.321 147.322.893-.076c-.388.395.232.515-.12.874-.379.387-.502-.251-.845.11-.51.536-.182.693-.772 1.245-1.081 1.012-.948.991-2.03 1.959l-2.157-.156.977-1.018c.539-.293.54.304 1.045.028.158-.086.08-.147 1.075-1.979.879-.182 1.797-.883 1.935-.989Z" style="fill:#dea984;fill-opacity:.2"/><path d="M390.539 72.787c.229.118.179.045 2.923 1.346l-3.917.557-2.979-.893c1.959-.763 1.907-.791 3.973-1.01" style="fill:#8397af;fill-opacity:.28"/><path d="m429.289 151.279 2.157.156c-3.133 1.846-2.76 2.398-6.163 3.707.735-.683 1.108-1.538 1.173-1.688.093-.213 2.219-1.556 2.832-2.175Z" style="fill:#d6a185;fill-opacity:.27"/><path d="m82.309 106.133.911-.097c-1.701 1.892-1.893 1.561-3.84 3.304l-2.069-.06c1.471-1.472 1.287-1.941 4.998-3.147" style="fill:#99d7d7;fill-opacity:.21"/><path d="M364.697 149.304c2.476 2.499 3.007 1.914 5.008 4.868-1.102-.438-1.073-.308-2.087-.83-.508-.262-2.907-2.042-2.916-2.059-.158-.298.177-.714.019-1.011z" style="fill:#c79880;fill-opacity:.23"/><path d="M355.541 480.739c.323-.038 1.96-.233 4.065.186-3.284 1.679-3.394 1.052-7.093.915z" style="fill:#96c5c7;fill-opacity:.15"/><path d="M394.494 23.113c-.443.168-.593.806-1.036.974-1.455.551-5.592-.003-6.074-.067 4.214-2.14 4.423-1.007 7.11-.907" style="fill:#d3a798;fill-opacity:.28"/><path d="m444.705 185.842.988.003c-1.909 1.641-2.101 1.257-4.012 2.889l-2.159-.191c2.567-1.506 2.432-1.539 5.184-2.701Z" style="fill:#dda78d;fill-opacity:.35"/><path d="M466.72 54.297c2.728 3.169 3.195 5.084 3.983 6.034-2.513-1.438-1.786-2.143-4.05-3.96z" style="fill:#ce9d81;fill-opacity:.31"/><path d="m441.581 35.367 2.094-.084c2.319 1.955 2.802 1.053 5.01 3.02l-2.063.003c-2.499-1.571-2.186-1.979-5.04-2.939Z" style="fill:#d79e81;fill-opacity:.34"/><path d="M402.501 23.112c3.506-.13 3.456-.1 6.928.566-5.066 1.656-5.504.167-6.928-.566" style="fill:#d2a694;fill-opacity:.32"/><path d="M52.479 432.51c.127.258.991 2.005 1.791 3.113l-.176 2.092c-1.174-1.453-1.274-1.278-2.059-2.987z" style="fill:#92d5da;fill-opacity:.19"/><path d="M483.643 87.437c.717 2.974 1.08 2.795 1.299 5.95-1.301-2.934-2.324-2.872-1.299-5.95" style="fill:#cfa286;fill-opacity:.38"/><path d="M363.294 125.594c2.171 3.64 1.846 3.693 2.053 3.986v2.014c-.714-1.276-.728-1.165-1.698-2.221l-.686-1.023.332-2.756Z" style="fill:#738598;fill-opacity:.35"/><path d="m386.567 73.797 2.979.893c-1.952.705-1.851.72-3.988.978l-1.186-.481c.962-.909.903-.897 2.194-1.39Z" style="fill:#8a9db6;fill-opacity:.31"/><path d="M110.372 94.023c-1.035.572-.921.588-1.978 1.093-1.788.855-1.686 1.236-3.017.941-.377-.083-.553-.609-.93-.692 3.272-1.04 5.443-1.287 5.925-1.342" style="fill:#81c5c6;fill-opacity:.28"/><path d="M350.086 93.436c-.406 2.692.086 2.78-1.169 5.181l-.287-3.07c.71-1.134.524-1.191 1.457-2.111Z" style="fill:#cc967f;fill-opacity:.18"/><path d="M116.441 92.35c3.067-.383 2.976-.221 6.057-.231-.44.125-.586.786-1.025.911-2.619.747-2.597.419-5.032-.681Z" style="fill:#8fc9ca;fill-opacity:.21"/><path d="M389.672 469.714c-1.389 1.379-1.238 1.468-2.963 2.208l-2.091-.202c2.52-1.335 2.319-1.86 5.053-2.006Z" style="fill:#95d2cf;fill-opacity:.27"/><path d="M425.252 66.903c.405.327.489-.259.927.094.355.287-.245.489.131.76.268.193.69-.093.99.046l1.955 2.015c-2.933.358-3.879-2.539-4.002-2.915Z" style="fill:#d8ad97;fill-opacity:.3"/><path d="m461.766 50.259.917.057c.799.783.757.744 3.023 2.98l-1.017.019c-.231-.23-.746.205-.977-.025s.202-.743-.027-.974c-.227-.229-.744.206-.967-.027-.228-.238.219-.746-.006-.987-.391-.42-.556.394-.945-.035-.406-.448.397-.57-.001-1.009Z" style="fill:#cea798;fill-opacity:.22"/><path d="M340.3 44.288c-.298.596.304 1.403.006 2-.149.299-.76-.233-1.003-.003-.235.222.212.74-.016.969-.812.816-1.111.156-2.012 1.006l.036-.948c1.495-1.529 1.45-1.481 2.99-3.023Z" style="fill:#cba995;fill-opacity:.22"/><path d="M485.983 100.392c1.192 2.374 1.065 2.368.901 5.103-.248-.688-1.334-.469-.901-5.103" style="fill:#cca28e;fill-opacity:.33"/><path d="M470.703 60.331c1.82 1.833 1.478 2.009 2.941 4.094-.626-.372-2.49-.097-2.941-4.094" style="fill:#c79776;fill-opacity:.33"/><path d="m50.184 427.624 1.26 2.899-.412 2.197c-.866-1.387-.748-1.398-.966-3.063z" style="fill:#8ac8c6;fill-opacity:.2"/><path d="m51.056 141.295.309 2.147-1.239 2.911-.041-2.006c.338-1.584.218-1.524.971-3.052" style="fill:#86c6c4;fill-opacity:.22"/><path d="m437.341 144.335-.106.901c-.877 1.184-.847 1.146-2.021 2.01l-.893.076c1.149-1.879 1.366-1.619 3.02-2.987" style="fill:#d9a179;fill-opacity:.2"/><path d="M486.885 117.511c.149 2.502-.093 2.384-.569 4.923-.79-2.503-.731-2.577.569-4.923" style="fill:#d3a398;fill-opacity:.29"/><path d="M350.828 131.348c1.726 2.395 1.031 2.685 2.797 5.087-2.475-1.764-1.782-2.241-2.797-5.087" style="fill:#b98463;fill-opacity:.42"/><path d="M51.445 430.524c.706.892.735.833 1.034 1.987l-.444 2.218c-.62-.955-.585-.895-1.002-2.008z" style="fill:#8fcecf;fill-opacity:.2"/><path d="M424.425 155.364c-1.983 2.872-2.626 1.931-5.087 2.769 2.721-1.884 2.974-1.255 5.087-2.769" style="fill:#b17b5f;fill-opacity:.37"/><path d="M387.394 147.865c2.166-.146 2.115-.109 4.109.608l-1.937.697c-1.211-.529-1.13-.491-2.172-1.305" style="fill:#7187a2;fill-opacity:.44"/><path d="m357.787 143.275.903.044c1.02.992.955.928 2.02 1.976l-.988-.005c-.307-.16-.731.201-1.038.042-.159-.083-.066-.152-.898-2.057Z" style="fill:#dbaf93;fill-opacity:.19"/><path d="M365.347 129.58c.944 1.943 1.619 1.597 1.901 4.082l-.633-.231c-.743-.876-.466-.953-1.268-1.837z" style="fill:#607a90;fill-opacity:.44"/><path d="m88.208 470.962 2.049.017c1.259.661 1.043 1.928 1.046 1.934-1.893-.672-1.764-.798-3.095-1.951" style="fill:#92dadc;fill-opacity:.29"/><path d="M410.444 23.901c2.647.41 2.703-.124 5.174 1.131-3.403.235-3.196-.716-5.174-1.131" style="fill:#a67a62;fill-opacity:.33"/><path d="m423.649 431.561.299 2.152c-.412 1.126-.377 1.065-.99 2.015l-.407-2.201 1.097-1.966Z" style="fill:#91c9cc;fill-opacity:.16"/><path d="m346.291 40.147.914-.044c-1.291 1.356-1.291 1.29-2.983 2.046l.096-.847c.881-.772.754-.878 1.973-1.155" style="fill:#e8b59a;fill-opacity:.32"/><path d="m52.065 139.281.335 2.17-1.035 1.991-.309-2.147c.401-1.11.364-1.053 1.009-2.014" style="fill:#8fcbcc;fill-opacity:.18"/><path d="M473.868 65.304c.136.169.836 1.038 1.846 1.998l-.234 2.209-.698-2.193c-.269-.426-.573.359-.782-.101-.41-.904.314-.93-.131-1.912Z" style="fill:#bf886d;fill-opacity:.3"/><path d="M424.919 429.657c.121 2.218-.057 2.129-.97 4.057l-.299-2.152z" style="fill:#80b3b4;fill-opacity:.13"/><path d="M449.815 40.084c1.642-.111 1.301.693 2.867 1.218.106.036 0 0 .989.994-2.32-.19-2.197-.456-3.856-2.212" style="fill:#d09d7e;fill-opacity:.34"/><path d="m441.321 83.641.831.095c1.073 1.944 1.037 1.869 1.993 3.926-1.548-1.929-1.163-2.116-2.823-4.021Z" style="fill:#b08368;fill-opacity:.38"/><path d="m464.689 53.315 1.017-.019 1.014 1.001-.067 2.074-.977-2.026c-.402-.434-.565.386-.967-.033-.407-.425.395-.564-.02-.996Z" style="fill:#e2b6a1;fill-opacity:.27"/><path d="m361.737 147.259.974.031.996 1.01.027.965c-.325-.144-.739.202-1.063.058-.716-.317-.969-.877-1.016-.98-.245-.541.342-.51.082-1.084" style="fill:#f5bc99;fill-opacity:.2"/><path d="M380.449 25.106c-1.492.817-1.398.975-3.074 1.031l-.993-.056c1.947-1.034 1.919-1.165 4.067-.975" style="fill:#bb947a;fill-opacity:.29"/><path d="M331.294 53.301c-.266 2.592-.084 2.694-.286 2.792-.518.252-1.193-.009-1.711.242 1.191-1.401.782-1.619 1.997-3.035Z" style="fill:#cda58e;fill-opacity:.26"/><path d="M484.941 93.387c1.01 1.937 1.14 1.918.936 4.102-1.004-1.909-.954-1.907-.936-4.102" style="fill:#bd927d;fill-opacity:.33"/><path d="M43.386 169.458c.143.674.575.36.709.994.033.158.228 1.076-.072 2.017-.138.433-.759.594-.897 1.027-.182-2.081-.167-2.022.26-4.038" style="fill:#92c2bf;fill-opacity:.23"/><path d="m50.086 144.348.041 2.006-1.067 1.961-.354-.727c.242-.985 1.254-2.989 1.381-3.24Z" style="fill:#6eafae;fill-opacity:.25"/><path d="M385.485 24.118c-.564.294-.349 1.199-4.106.907 1.986-.999 1.948-1.103 4.106-.907" style="fill:#c99987;fill-opacity:.33"/><path d="M53.034 138.214c.146 1.713.12 1.683-.634 3.237l-.335-2.17z" style="fill:#9be3e4;fill-opacity:.22"/><path d="M43.125 400.503c.941 1.947 1.01 1.971.253 4.042z" style="fill:#91c4c0;fill-opacity:.26"/><path d="m49.068 425.657 1.116 1.967-.118 2.033c-1.136-1.837-.768-1.869-.998-4" style="fill:#71afad;fill-opacity:.22"/><path d="M354.692 138.353c1.196 1.399.809 1.574 1.995 2.99l-1.772-1.125c-.257-.571.034-1.294-.223-1.865" style="fill:#b48268;fill-opacity:.35"/><path d="m342.278 43.154.922-.038-2.9 1.172c.913-.778.8-.874 1.978-1.134" style="fill:#c9a68d;fill-opacity:.25"/><path d="m461.698 171.691-.005 1.998-1 1.008c-.047-3.111.995-2.985 1.004-3.006Z" style="fill:#da9f89;fill-opacity:.22"/><path d="M453.824 43.081c1.66-.105 1.582.114 2.865 1.223z" style="fill:#c99f88;fill-opacity:.26"/><path d="M447.661 184.681c-.943.836-.826.896-1.969 1.163l-.988-.003c.091-.046-.105-.934 2.956-1.16Z" style="fill:#c89c84;fill-opacity:.31"/><path d="m435.3 76.699.952.03 1.06 1.955c-.161-.159-1.005-.995-2.012-1.985" style="fill:#be967d;fill-opacity:.19"/><path d="M460.669 48.33c.159.161.997 1.004 2.014 1.986l-.917-.057-.987-1.04z" style="fill:#bb927a;fill-opacity:.25"/><path d="m446.621 38.306 2.063-.003.985.998c-.847-.069-.77-.144-3.048-.995" style="fill:#ca9471;fill-opacity:.35"/><path d="m417.671 441.608.015 2.065-.986.99c.009-.09-.007-.014.97-3.055Z" style="fill:#75bdbb;fill-opacity:.31"/><path d="M85.439 104.388c-.889 1.16-.958.993-2.219 1.648l-.911.097c.257-.127 1.999-.988 3.13-1.745" style="fill:#5fa09f;fill-opacity:.36"/><path d="m417.348 159.112-2.988 1.051c1.327-.948 1.376-.711 2.988-1.051" style="fill:#b38a76;fill-opacity:.3"/><path d="m344.319 41.303-.096.847-1.022.967-.922.038c.17-.141 1.044-.867 2.04-1.852" style="fill:#ad836b;fill-opacity:.29"/><path d="M356.688 141.344c.99.994 1.841 1.819 2.002 1.975l-.903-.044c-.344-.405-.845-.117-1.099-1.931" style="fill:#b08c75;fill-opacity:.25"/><path d="M437.312 78.684c.074.046 1.641-.952 2.007 1.968a274 274 0 0 0-2.007-1.968" style="fill:#b2886e;fill-opacity:.23"/><path d="M467.626 166.581c-.98 1.121-.908 1.044-1.945 2.094.448-2.986 1.737-1.947 1.945-2.094" style="fill:#b38975;fill-opacity:.3"/><path d="m348.321 38.307-1.116 1.796-.914.044c.17-.138 1.042-.848 2.03-1.841Z" style="fill:#aa7d66;fill-opacity:.27"/><path d="m354.741 82.659-.063 1.997-.986.994c.124-1.064.217-.966 1.049-2.991" style="fill:#c59170;fill-opacity:.36"/><path d="M439.319 80.652c1.235.729 1.134.787 1.881 2.052l-.809-.138c-.263-.434.04-.47-.209-.882-.056-.092 0 0-.862-1.032Z" style="fill:#c18d6e;fill-opacity:.33"/><path d="M327.297 59.335c-.302 2.065-.897 1.67-1.099 1.911l-.891.077c.16-.158 1.011-.996 1.99-1.988" style="fill:#ae8571;fill-opacity:.27"/><path d="M432.387 148.311c-.995 1.832-.917 1.893-1.075 1.979-.505.275-.507-.322-1.045-.028 1.074-1.093 1.006-1.022 2.12-1.951" style="fill:#a18672;fill-opacity:.06"/><path d="m48.705 147.588.354.727-.966 2.05.612-2.776Z" style="fill:#8bbab8;fill-opacity:.26"/><path d="m359.722 145.29.988.005 1 .994-.986-.009-1.001-.99Z" style="fill:#d3a88f;fill-opacity:.13"/><path d="M47.704 150.583c.297 1.465.033 1.361-.621 2.776z" style="fill:#8bb7b8;fill-opacity:.26"/><path d="m360.723 146.281.986.009 1.001 1-.974-.031-1.014-.978Z" style="fill:#d2a689;fill-opacity:.13"/><path d="M381.639 160.103c.352.056.417-.325 2.785.598-1.5.274-1.419.029-2.785-.598" style="fill:#b9917a;fill-opacity:.3"/><path d="M363.646 73.671c-.987.989-1.824 1.831-1.982 1.991l.176-.823c.314-.307-.133-.874 1.806-1.168" style="fill:#ac7e61;fill-opacity:.24"/><path d="m363.707 148.299.99 1.005.024.968-.987-1.007z" style="fill:#cea188;fill-opacity:.15"/><path d="M46.142 417.552c.632 1.472.904 1.373.568 2.843-.397-1.435-.387-1.357-.568-2.843" style="fill:#95c5c6;fill-opacity:.26"/><path d="m371.724 66.877-.179.706c-.422.268-.464-.026-.865.228-.091.058 0 0-1.037.869.821-1.208.793-1.129 2.082-1.803Z" style="fill:#b97f5d;fill-opacity:.4"/><path d="m408.893 453.887.779-.215c-.161.159-1.006.992-2.005 1.992l.228-.775z" style="fill:#6ea5a2;fill-opacity:.27"/><path d="m456.689 44.304.999 1.011.051.945z" style="fill:#d2a894;fill-opacity:.2"/><path d="M62.403 449.561c1.618.342 1.651.493 1.925 2.106-1.064-1.075-.998-1.008-1.925-2.106" style="fill:#72a6aa;fill-opacity:.28"/><path d="M415.606 446.566c-.96 1.125-.887 1.047-1.927 2.103.283-1.649.333-1.788 1.927-2.103" style="fill:#6ea6a7;fill-opacity:.27"/><path d="m458.681 46.315.997 1.001.052.929-1.008-.979z" style="fill:#d2b09e;fill-opacity:.2"/><path d="m457.688 45.314.993 1 .041.95-.983-1.006z" style="fill:#d2a791;fill-opacity:.2"/><path d="m325.307 61.324.891-.077-1.85 1.16z" style="fill:#d3b095;fill-opacity:.24"/><path d="m461.698 171.691 1.139.04c-.415 1.099-.373 1.052-1.144 1.957l.005-1.998Z" style="fill:#d3a08d;fill-opacity:.15"/><path d="m459.678 47.316.991 1.015.11.889-1.048-.974-.052-.929Z" style="fill:#cfac94;fill-opacity:.24"/><path d="m429.254 69.819 1.012.971.053.897c-.771-.798-.727-.769-1.065-1.869Z" style="fill:#c99679;fill-opacity:.26"/><path d="m440.391 82.566.809.138.952 1.031-.831-.095z" style="fill:#ce9f88;fill-opacity:.25"/><path d="m451.782 180.866-.118.836-1.091.915c.343-1.838.858-1.405 1.21-1.75Z" style="fill:#c79b88;fill-opacity:.36"/><path d="m410.678 452.666-1.006 1.007-.779.215c.19-.196-.365-.93 1.785-1.222" style="fill:#86bbbe;fill-opacity:.26"/><path d="m361.839 74.839-.176.823-.99.991c.311-2.108.984-1.622 1.166-1.814" style="fill:#bf8969;fill-opacity:.25"/><path d="m407.895 454.89-.228.775-.977 1.007c.296-2.231 1.074-1.65 1.205-1.781Z" style="fill:#81b7b8;fill-opacity:.27"/><path d="M438.333 143.345c-.348 1.907-.83 1.567-1.098 1.891l.106-.901z" style="fill:#bd8764;fill-opacity:.31"/><path d="M398.66 463.693c-.9.747-.841.725-1.943 1.175.228-.198-.214-.846 1.943-1.175" style="fill:#7eb6b6;fill-opacity:.27"/></svg>