<?xml version="1.0" encoding="UTF-8"?>
<svg width="100pt" height="100pt" version="1.1" viewBox="0 0 100 100" xmlns="http://www.w3.org/2000/svg">
 <path d="m49.996 3.2422c-4.332 0-8.6602 0.86719-12.723 2.5977l-30.914 13.203c-3.2852 1.4023-5.1055 4.6094-5.1055 7.7109 0 3.0977 1.8203 6.3125 5.1055 7.7148l8.918 3.8086-10.672 4.5547c-2.9531 1.2617-4.6055 4.1797-4.6055 6.9727 0 2.793 1.6523 5.707 4.6055 6.9648l10.664 4.5508-10.664 4.5547c-2.9531 1.2617-4.6055 4.1797-4.6055 6.9727 0 2.793 1.6523 5.6875 4.6055 6.9492l34.449 14.723c6.9922 2.9844 14.902 2.9844 21.895 0l34.441-14.723c2.9531-1.2617 4.6094-4.1562 4.6094-6.9492 0-2.793-1.6562-5.7109-4.6094-6.9727l-10.664-4.5547 10.664-4.5508c2.9531-1.2617 4.6094-4.1758 4.6094-6.9648 0-2.793-1.6562-5.7109-4.6094-6.9727l-10.672-4.5547 8.918-3.8086c3.2852-1.4023 5.0781-4.6172 5.0781-7.7148s-1.793-6.3086-5.0781-7.7109l-30.914-13.199c-4.0625-1.7344-8.3906-2.5977-12.723-2.5977zm0 6.0859c3.5117 0 7.0195 0.70703 10.32 2.1172l30.914 13.195c1.0469 0.44531 1.3906 1.2148 1.3906 2.1133 0 0.89453-0.34766 1.6719-1.3906 2.1172l-30.914 13.195c-6.5977 2.8164-14.043 2.8164-20.641 0l-30.91-13.195c-1.0469-0.44531-1.4219-1.2188-1.4219-2.1172 0-0.89453 0.375-1.6641 1.4219-2.1133l30.91-13.195c3.3008-1.4102 6.8125-2.1172 10.32-2.1172zm-26.969 32.254 14.246 6.0781c8.125 3.4688 17.324 3.4688 25.449 0l14.246-6.0781 16.039 6.8477c0.71484 0.30469 0.90625 0.78516 0.90625 1.375 0 0.58984-0.19141 1.0391-0.90625 1.3438l-34.441 14.727c-5.4688 2.3359-11.664 2.3359-17.133 0l-17.18-7.3477h-0.003906c-0.027344-0.015625-0.054688-0.03125-0.082031-0.046875v-0.003907c-0.03125-0.007812-0.0625-0.015624-0.09375-0.023437l-17.086-7.3047c-0.71484-0.30469-0.89844-0.75391-0.89844-1.3438 0-0.58984 0.18359-1.0703 0.89844-1.375zm-0.007813 23.043 16.031 6.8477c6.9922 2.9844 14.902 2.9844 21.895 0l16.023-6.8398 16.031 6.8398c0.71484 0.30469 0.90625 0.78516 0.90625 1.375s-0.19141 1.0391-0.90625 1.3438l-34.441 14.703c-5.4688 2.3359-11.664 2.3359-17.133 0l-34.441-14.703c-0.71484-0.30469-0.89844-0.75391-0.89844-1.3438s0.18359-1.0703 0.89844-1.375z" fill="#fff"/>
</svg>
