<svg xmlns="http://www.w3.org/2000/svg" width="100pt" height="100pt" viewBox="0 0 100 100"><path fill="#fff" fill-rule="evenodd" d="M49.938 4.684c-24.977 0-45.254 20.277-45.254 45.254s20.277 45.258 45.254 45.258 45.258-20.281 45.258-45.258S74.915 4.684 49.938 4.684M8.278 56.278c2.852 18.87 18.246 33.66 37.406 35.582.008-.012.02-.024.027-.036a1.56 1.56 0 0 1 2.16-.445c.669.442 1.356.695 2.067.695 1.172 0 2.262-.66 3.316-1.753 1.29-1.336 2.473-3.297 3.547-5.75 2.145-4.887 3.805-11.66 4.75-19.527-3.699.324-7.594.5-11.613.5-17.246 0-32.203-3.22-39.637-7.825a19 19 0 0 1-2.023-1.441zm83.32 0q-.904.744-2.023 1.441c-5.2 3.219-14.082 5.762-24.852 7.004-1.243 10.77-3.786 19.652-7.004 24.852a19 19 0 0 1-1.442 2.023c18.184-2.746 32.57-17.137 35.32-35.32zM44.375 87.192a29 29 0 0 1-1.316-2.653 1.56 1.56 0 0 0-2.055-.804 1.56 1.56 0 0 0-.805 2.054 33 33 0 0 0 1.457 2.938 1.56 1.56 0 1 0 2.719-1.535m-3.34-8.34q-.416-1.42-.785-2.95a1.56 1.56 0 0 0-1.887-1.144 1.56 1.56 0 0 0-1.148 1.883 75 75 0 0 0 .824 3.086 1.56 1.56 0 0 0 1.934 1.058 1.563 1.563 0 0 0 1.062-1.933m-2.011-8.953q-.248-1.487-.461-3.04a1.563 1.563 0 0 0-1.762-1.331 1.56 1.56 0 0 0-1.332 1.757c.144 1.067.308 2.11.48 3.133.141.848.946 1.422 1.797 1.277a1.56 1.56 0 0 0 1.278-1.796m22.543-34.941c-.942-7.922-2.61-14.738-4.766-19.652-1.074-2.453-2.258-4.41-3.547-5.75-1.055-1.09-2.144-1.75-3.316-1.75h-.024c-.71.004-1.398.261-2.066.707a1.56 1.56 0 0 1-2.164-.434q-.017-.03-.04-.058C25.802 10.032 10.009 25.837 8.017 45.685c.011.007.023.02.035.027.722.473.918 1.441.445 2.16-.437.66-.684 1.336-.691 2.035v.032c0 1.171.66 2.261 1.75 3.316 1.34 1.289 3.297 2.473 5.75 3.547 4.914 2.152 11.723 3.82 19.633 4.762a1.5 1.5 0 0 1-.157-.567q-.129-1.553-.222-3.152a1.565 1.565 0 0 1 1.469-1.649c.859-.046 1.597.61 1.648 1.47q.09 1.557.215 3.073c.035.414-.094.805-.336 1.106 3.922.379 8.078.578 12.383.578 4.144 0 8.152-.187 11.949-.535.348-3.797.535-7.805.535-11.95 0-4.316-.203-8.484-.582-12.413a1.56 1.56 0 0 1-1.137.367c-1.011-.086-2.039-.156-3.074-.219a1.56 1.56 0 1 1 .18-3.113c1.062.063 2.113.133 3.152.219q.33.032.605.18zm30.289 10.688C89.914 26.5 75.136 11.126 56.278 8.279q.744.903 1.44 2.023c4.603 7.434 7.825 22.391 7.825 39.637 0 4.02-.176 7.914-.5 11.613 7.867-.945 14.641-2.605 19.527-4.75 2.453-1.074 4.414-2.258 5.75-3.547 1.094-1.055 1.754-2.144 1.754-3.316v-.024c-.008-.71-.266-1.398-.71-2.066a1.56 1.56 0 0 1 .433-2.164q.03-.017.058-.04zM37.46 51.5q-.007-.779-.008-1.562.001-.768.008-1.524a1.561 1.561 0 0 0-3.121-.035q-.008.773-.008 1.559 0 .801.007 1.597c.012.86.72 1.551 1.579 1.543a1.56 1.56 0 0 0 1.543-1.578zm-24.777-7.125a29 29 0 0 1 2.652-1.316 1.56 1.56 0 0 0 .804-2.055 1.56 1.56 0 0 0-2.054-.805 33 33 0 0 0-2.938 1.457 1.56 1.56 0 0 0-.59 2.13 1.557 1.557 0 0 0 2.125.59m71.824-1.328c.96.418 1.847.856 2.652 1.309.75.425 1.703.16 2.125-.59.426-.75.16-1.703-.59-2.125a31 31 0 0 0-2.941-1.453 1.56 1.56 0 1 0-1.247 2.86m-46.836-.8q.091-1.556.218-3.075a1.567 1.567 0 0 0-1.43-1.683 1.564 1.564 0 0 0-1.683 1.425c-.086 1.04-.156 2.09-.219 3.153a1.558 1.558 0 1 0 3.113.18m-16.649-1.212q1.42-.416 2.95-.785a1.557 1.557 0 0 0 1.144-1.886 1.56 1.56 0 0 0-1.883-1.149 75 75 0 0 0-3.086.824 1.56 1.56 0 0 0-1.058 1.934c.242.828 1.11 1.3 1.934 1.062m54.848-.793q1.526.37 2.946.782a1.561 1.561 0 0 0 .875-2.996 75 75 0 0 0-3.086-.82 1.56 1.56 0 0 0-1.883 1.148 1.56 1.56 0 0 0 1.149 1.886m-45.894-1.218q1.486-.248 3.039-.461a1.563 1.563 0 0 0 1.332-1.762 1.56 1.56 0 0 0-1.758-1.332c-1.067.145-2.11.309-3.133.48a1.556 1.556 0 0 0-1.277 1.797 1.56 1.56 0 0 0 1.797 1.278m36.848-.465q1.551.21 3.039.46a1.56 1.56 0 0 0 1.797-1.28 1.56 1.56 0 0 0-1.282-1.797 98 98 0 0 0-3.133-.477 1.56 1.56 0 0 0-1.757 1.336 1.567 1.567 0 0 0 1.336 1.758m-27.688-.668q1.516-.125 3.074-.215c.86-.05 1.515-.79 1.468-1.648a1.566 1.566 0 0 0-1.648-1.47q-1.6.095-3.152.223c-.86.07-1.496.825-1.426 1.684s.824 1.5 1.684 1.426m9.242-.43q.773-.007 1.558-.008.768.001 1.524.008a1.561 1.561 0 0 0 .035-3.121q-.774-.007-1.559-.008-.801.001-1.598.008c-.859.012-1.55.719-1.543 1.578a1.56 1.56 0 0 0 1.582 1.543zm-9.825-4.41c.145-1.035.297-2.047.465-3.04a1.564 1.564 0 0 0-1.28-1.796 1.56 1.56 0 0 0-1.798 1.281 98 98 0 0 0-.476 3.133c-.118.852.48 1.64 1.336 1.758.851.117 1.64-.48 1.753-1.336zm1.688-9.043q.37-1.53.781-2.95a1.56 1.56 0 0 0-2.996-.871 73 73 0 0 0-.82 3.083 1.563 1.563 0 0 0 3.035.738m2.805-8.64q.628-1.444 1.308-2.653c.426-.75.16-1.703-.59-2.125a1.556 1.556 0 0 0-2.125.59 30 30 0 0 0-1.453 2.941 1.558 1.558 0 1 0 2.86 1.246"/></svg>