<svg xmlns="http://www.w3.org/2000/svg" width="100pt" height="100pt" viewBox="0 0 100 100"><path fill="#fff" fill-rule="evenodd" d="M95.148 23.996a1.565 1.565 0 0 0-1.14-1.887L37.58 8.2a1.55 1.55 0 0 0-1.476.41l-19.22 19.203c-.198.204-.343.457-.41.73L4.726 76.192a1.56 1.56 0 0 0 1.145 1.89l56.562 13.946a1.55 1.55 0 0 0 1.477-.41l19.219-19.208c.203-.199.343-.453.414-.734zM8.289 74.781c.176.227.285.492.32.762L61.527 88.59l11-44.621-53.395-13.164zm72.59-5.363 9.922-40.758-14.973 14.965-5.711 23.148q.084.013.16.03c1.059.263 2.074.509 3.031.747a1.56 1.56 0 0 1-.746 3.031q-1.441-.358-3.03-.746l-.157-.047-3.91 15.863 13.5-13.492-.344-.086a1.559 1.559 0 0 1 .746-3.027zm-68.297-1.395-2.207 2.207a1.56 1.56 0 0 0 0 2.207c.605.61 1.598.61 2.203 0 .707-.703 1.45-1.445 2.211-2.203a1.56 1.56 0 0 0 0-2.207 1.557 1.557 0 0 0-2.207-.004m51.637-2.71-3.031-.75a1.563 1.563 0 0 0-1.89 1.14 1.57 1.57 0 0 0 1.14 1.89c1.027.254 2.039.5 3.031.747a1.563 1.563 0 0 0 1.89-1.141 1.557 1.557 0 0 0-1.14-1.887m-45.016-3.907-2.207 2.207a1.56 1.56 0 0 0 2.207 2.207l2.207-2.207a1.56 1.56 0 0 0-2.207-2.207m35.922 1.66c-1.008-.246-2.02-.496-3.027-.746a1.56 1.56 0 1 0-.75 3.031q1.514.374 3.03.747a1.557 1.557 0 0 0 1.888-1.141 1.563 1.563 0 0 0-1.141-1.89m-9.09-2.238-3.031-.75a1.56 1.56 0 0 0-1.887 1.145 1.56 1.56 0 0 0 1.14 1.886c.99.246 2.005.492 3.032.75a1.564 1.564 0 0 0 1.887-1.144 1.557 1.557 0 0 0-1.14-1.887m-9.094-2.242-3.027-.746a1.563 1.563 0 0 0-1.89 1.14 1.565 1.565 0 0 0 1.144 1.89q1.426.348 3.027.743c.84.211 1.684-.3 1.89-1.14a1.56 1.56 0 0 0-1.144-1.887m-12.89-2.024-.43.43a1.56 1.56 0 0 0 0 2.207c.605.61 1.597.61 2.203 0l.117-.113 1.164.289a1.557 1.557 0 0 0 1.887-1.14 1.56 1.56 0 0 0-1.14-1.891l-.497-.125.164-.672a1.556 1.556 0 0 0-1.137-1.89c-.832-.208-1.68.3-1.89 1.136zm2.71-10.855c-.265 1.063-.52 2.075-.758 3.028a1.56 1.56 0 1 0 3.027.758l.759-3.028a1.56 1.56 0 1 0-3.027-.758m2.27-9.085q-.385 1.536-.758 3.03a1.56 1.56 0 0 0 3.027.755c.25-.996.5-2.004.758-3.028a1.56 1.56 0 0 0-3.027-.757m9.453-24.984-.379 1.515a1.56 1.56 0 0 1-2.73.598L21.05 28.067l9.527 2.347.719-2.875a1.56 1.56 0 1 1 3.027.754l-.715 2.868 40.324 9.94 16.641-16.624zm-4.918 6.816q-.361 1.442-.758 3.031a1.562 1.562 0 0 0 3.031.754q.392-1.584.754-3.027a1.56 1.56 0 1 0-3.027-.758"/></svg>